<?xml version="1.0" encoding="utf-8"?>
<!-- Generator: Adobe Illustrator 19.2.1, SVG Export Plug-In . SVG Version: 6.00 Build 0)  -->
<svg version="1.1" id="Layer_2" xmlns="http://www.w3.org/2000/svg" xmlns:xlink="http://www.w3.org/1999/xlink" x="0px" y="0px"
	 viewBox="0 0 143 122" style="enable-background:new 0 0 143 122;" xml:space="preserve">
<style type="text/css">
	.st0{fill:#1E1E1E;}
</style>
<g>
	<path class="st0" d="M54,122c-7.3,0-14.7,0-22,0C21.3,103.7,10.7,85.3,0,67C0,44.7,0,22.5,0,0c22.7,0,45.3,0,68,0
		c0,22.3,0,44.6,0,67.5c-9.2,0-17.7,0-26.8,0c3.3,12.9,6.4,25.1,9.4,37.3C51.9,110.5,52.8,116.3,54,122z"/>
	<path class="st0" d="M107,122c7.7,0,15.3,0,23,0c-4.5-18-8.9-36-13.6-55c9.4,0,18,0,26.6,0c0-22.3,0-44.7,0-67c-22.7,0-45.3,0-68,0
		v66.2L107,122z"/>
</g>
</svg>
