<?xml version="1.0" encoding="utf-8"?>
<!DOCTYPE svg PUBLIC "-//W3C//DTD SVG 1.1//EN" "http://www.w3.org/Graphics/SVG/1.1/DTD/svg11.dtd">
<svg version="1.1" id="Calque_1" xmlns="http://www.w3.org/2000/svg" xmlns:xlink="http://www.w3.org/1999/xlink" x="0px" y="0px"
	 width="1632.866px" height="490px" viewBox="0 0 1632.866 490" enable-background="new 0 0 1632.866 490" xml:space="preserve">
<path fill="#177D3E" d="M1592.852,394.873l-97.289-132.088l-97.26,132.088h-40.072l117.017-159.587L1368.396,90.241h40.058
	l87.109,118.31l87.007-118.31h40.028L1515.82,235.286l117.047,159.587H1592.852z M1057.197,246.803
	c-6.043-5.119-12.754-9.394-19.948-12.707c22.107-12.001,36.606-34.682,36.606-60.991c0-19.493-7.183-82.864-99.022-82.864H851.131
	v131.325h-41.219c-7.588,10.033-14.964,20.225-22.122,30.569h63.341v142.709l123.701,0.016c67.014,0,108.645-34.036,108.645-88.932
	C1083.477,281.955,1074.413,261.551,1057.197,246.803 M885.328,122.029h89.504c24.238,0,64.796,6.038,64.796,48.417
	c0,32.038-23.636,51.134-64.796,51.134h-89.504V122.029z M974.818,363.085h-89.503V252.179h89.503
	c33.948,0,74.535,9.372,74.535,53.089C1049.367,355.549,1002.684,363.085,974.818,363.085"/>
<path fill="#177D3E" d="M1244.371,83.205c-85.552,0-145.368,65.457-145.368,159.162c0,93.852,59.802,159.265,145.368,159.265
	c85.493,0,145.118-65.413,145.118-159.265C1389.49,148.662,1329.865,83.205,1244.371,83.205 M1244.371,369.402
	c-65.192,0-110.848-52.252-110.848-127.036c0-74.74,45.655-126.977,110.848-126.977c65.09,0,110.51,52.236,110.51,126.977
	C1354.881,317.15,1309.461,369.402,1244.371,369.402 M834.489,394.844L717.383,235.271l106.852-145.03h-40.028L697.097,208.58
	L610.061,90.241H570.15l106.778,145.03L559.837,394.844h40.117l97.201-132.059l97.26,132.059H834.489z"/>
<g transform="translate(-3.408 36.558)">
	<path fill="#666666" d="M510.407,210.347c0,135.32-110.95,245.008-247.813,245.008c-136.862,0-247.813-109.688-247.813-245.008
		c0-135.306,110.95-245.007,247.813-245.007C399.457-34.66,510.407,75.027,510.407,210.347L510.407,210.347z"/>

		<radialGradient id="SVGID_1_" cx="-125.1621" cy="-1156.5311" r="14.351" gradientTransform="matrix(0 24.8768 -22.0902 0 -25289.8184 3297.731)" gradientUnits="userSpaceOnUse">
		<stop  offset="0" style="stop-color:#FFFFFF"/>
		<stop  offset="1" style="stop-color:#FFFFFF;stop-opacity:0"/>
	</radialGradient>
	<path fill="url(#SVGID_1_)" d="M510.407,210.347c0,135.32-110.95,245.008-247.813,245.008
		c-136.862,0-247.813-109.688-247.813-245.008c0-135.306,110.95-245.007,247.813-245.007
		C399.457-34.66,510.407,75.027,510.407,210.347L510.407,210.347z"/>

		<radialGradient id="SVGID_2_" cx="-125.1621" cy="-1156.5311" r="14.351" gradientTransform="matrix(0 24.8768 -22.0902 0 -25289.8184 3297.731)" gradientUnits="userSpaceOnUse">
		<stop  offset="0" style="stop-color:#FFFFFF"/>
		<stop  offset="1" style="stop-color:#FFFFFF;stop-opacity:0"/>
	</radialGradient>
	<path fill="url(#SVGID_2_)" d="M510.407,210.347c0,135.32-110.95,245.008-247.813,245.008
		c-136.862,0-247.813-109.688-247.813-245.008c0-135.306,110.95-245.007,247.813-245.007
		C399.457-34.66,510.407,75.027,510.407,210.347L510.407,210.347z"/>

		<radialGradient id="SVGID_3_" cx="-125.1621" cy="-1156.5311" r="14.351" gradientTransform="matrix(0 24.8768 -22.0902 0 -25289.8184 3297.731)" gradientUnits="userSpaceOnUse">
		<stop  offset="0" style="stop-color:#FFFFFF"/>
		<stop  offset="1" style="stop-color:#FFFFFF;stop-opacity:0"/>
	</radialGradient>
	<path fill="url(#SVGID_3_)" d="M510.407,210.347c0,135.32-110.95,245.008-247.813,245.008
		c-136.862,0-247.813-109.688-247.813-245.008c0-135.306,110.95-245.007,247.813-245.007
		C399.457-34.66,510.407,75.027,510.407,210.347L510.407,210.347z"/>
	<path fill="#00A54D" d="M199.723,103.026C172.356,136.194,57.733,271.001,67.898,362.149c7.08,8.961,14.881,17.363,23.121,25.267
		c-1.204-69.776,80.676-144.442,144.575-200.807l-35.887-83.583H199.723z"/>
	<g transform="matrix(1.0075 0 0 1.00084 1.107 -34.878)">

			<linearGradient id="SVGID_4_" gradientUnits="userSpaceOnUse" x1="-33.3209" y1="-674.911" x2="-37.2769" y2="-679.551" gradientTransform="matrix(14.9107 0 0 14.7137 667.8935 10243.6582)">
			<stop  offset="0" style="stop-color:#97CA43"/>
			<stop  offset="1" style="stop-color:#97CA43;stop-opacity:0"/>
		</linearGradient>
		<path fill="url(#SVGID_4_)" d="M197.119,137.788c-27.146,33.14-140.917,167.828-130.825,258.904
			c7.022,8.961,14.763,17.349,22.945,25.237c-1.189-69.701,80.073-144.324,143.503-200.63L197.119,137.788z"/>
	</g>
	<g transform="matrix(1.0075 0 0 1.00084 .968 -34.846)">
		<path fill="#02A74D" d="M130.508,36.78c-14.122,8.6-27.345,18.595-39.471,29.835c39.015,7.462,78.148,42.041,99.609,70.686
			c18.685,29.408,28.835,56.364,42.027,84.186c9.178-7.896,18.463-15.667,27.852-23.312l-0.058-120.836
			c-29.071-18.186-77.121-42.115-129.503-40.558C130.846,36.853,130.611,36.706,130.508,36.78z"/>

			<linearGradient id="SVGID_5_" gradientUnits="userSpaceOnUse" x1="-33.1288" y1="-686.0536" x2="-29.5048" y2="-694.0966" gradientTransform="matrix(14.9107 0 0 14.7137 661.9026 10244.0957)">
			<stop  offset="0" style="stop-color:#97CA43"/>
			<stop  offset="1" style="stop-color:#97CA43;stop-opacity:0"/>
		</linearGradient>
		<path fill="url(#SVGID_5_)" d="M130.508,36.78c-14.122,8.6-27.345,18.595-39.471,29.835c39.015,7.462,78.148,42.041,99.609,70.686
			c18.685,29.408,28.835,56.364,42.027,84.186c9.178-7.896,18.463-15.667,27.852-23.312l-0.058-120.836
			c-29.071-18.186-77.121-42.115-129.503-40.558C130.846,36.853,130.611,36.706,130.508,36.78z"/>
	</g>
	<g>
		<path fill="#00A54D" d="M325.568,103.128c27.264,33.199,141.504,168.123,131.368,259.33c-7.051,8.961-14.821,17.378-23.033,25.296
			c1.19-69.835-80.41-144.575-144.104-200.983l35.77-83.657V103.128z"/>
		<g transform="matrix(-1.00417 0 0 1.00169 61.912 -34.88)">

				<linearGradient id="SVGID_6_" gradientUnits="userSpaceOnUse" x1="-2664.6719" y1="-675.4418" x2="-2668.627" y2="-680.0818" gradientTransform="matrix(14.8128 0 0 14.7394 39149.6289 10241.3691)">
				<stop  offset="0" style="stop-color:#97CA43"/>
				<stop  offset="1" style="stop-color:#97CA43;stop-opacity:0"/>
			</linearGradient>
			<path fill="url(#SVGID_6_)" d="M-262.558,137.764c-27.146,33.14-140.916,167.843-130.825,258.904
				c7.061,8.932,14.728,17.369,22.945,25.251c-1.19-69.717,80.072-144.325,143.502-200.645L-262.558,137.764z"/>
		</g>
		<g transform="matrix(-1.00417 0 0 1.00169 62.051 -34.848)">
			<path fill="#02A74D" d="M-329.174,36.755c-14.121,8.608-27.348,18.603-39.486,29.834c39.015,7.462,78.163,42.042,99.61,70.686
				c18.685,29.409,28.85,56.364,42.042,84.201c8.931-7.624,18.009-15.38,27.852-23.313l-0.059-120.851
				c-29.07-18.186-77.12-42.115-129.503-40.558C-328.822,36.828-329.071,36.681-329.174,36.755z"/>

				<linearGradient id="SVGID_7_" gradientUnits="userSpaceOnUse" x1="-2659.9839" y1="-686.6807" x2="-2656.8877" y2="-691.7239" gradientTransform="matrix(14.8128 0 0 14.7394 39147.7344 10241.8223)">
				<stop  offset="0" style="stop-color:#97CA43"/>
				<stop  offset="1" style="stop-color:#97CA43;stop-opacity:0"/>
			</linearGradient>
			<path fill="url(#SVGID_7_)" d="M-329.174,36.755c-14.121,8.608-27.348,18.603-39.486,29.834
				c39.015,7.462,78.163,42.042,99.61,70.686c18.685,29.409,28.85,56.364,42.042,84.201c8.931-7.624,18.009-15.38,27.852-23.313
				l-0.059-120.851c-29.07-18.186-77.12-42.115-129.503-40.558C-328.822,36.828-329.071,36.681-329.174,36.755z"/>
		</g>
	</g>
</g>
</svg>
